<svg style="position: absolute; width: 0; height: 0; overflow: hidden;" version="1.1" xmlns="http://www.w3.org/2000/svg" xmlns:xlink="http://www.w3.org/1999/xlink">
<defs>
<symbol id="icon-logo" viewBox="0 0 172 32">
<title>logo</title>
<path d="M0.248 0.165l-0.248 3.452h0.512c0.991-2.263 1.173-2.709 2.676-2.709h1.222v9.001c0 1.007-0.628 1.173-1.734 1.206v0.644h5.087v-0.644c-1.107-0.033-1.751-0.198-1.751-1.206v-9.001h1.255c1.503 0 1.685 0.446 2.659 2.709h0.529l-0.264-3.452h-9.943zM24.791 9.91c0 1.007-0.611 1.173-1.685 1.206v0.644h4.955v-0.644c-1.107-0.033-1.685-0.198-1.685-1.206v-7.895c0-1.007 0.578-1.173 1.685-1.206v-0.644h-4.955v0.644c1.074 0.033 1.685 0.198 1.685 1.206v3.435h-6.127v-3.435c0-1.007 0.611-1.173 1.685-1.206v-0.644h-4.955v0.644c1.107 0.033 1.685 0.198 1.685 1.206v7.895c0 1.007-0.578 1.173-1.685 1.206v0.644h4.955v-0.644c-1.074-0.033-1.685-0.198-1.685-1.206v-3.7h6.127v3.7zM37.673 0.925c2.098 0 2.973 1.090 2.973 2.494 0 1.701-0.941 2.56-2.907 2.56h-1.156v-5.054h1.090zM33.313 0.165v0.644c1.107 0.033 1.685 0.198 1.685 1.206v7.895c0 1.007-0.578 1.173-1.685 1.206v0.644h4.938v-0.644c-1.074-0.033-1.668-0.198-1.668-1.206v-3.204h0.875l2.791 3.601c0.545 0.71 0.892 1.074 1.503 1.453h2.362v-0.644c-0.892-0.050-1.602-0.512-2.131-1.173l-2.775-3.452c1.569-0.149 3.188-1.206 3.188-3.072 0-1.916-1.288-3.254-4.228-3.254h-4.856zM56.898 7.697v-3.733h-0.562c-0.165 0.991-0.462 1.486-1.189 1.486h-2.808v-4.525h3.155c1.338 0 1.8 0.562 2.395 1.998h0.446v-2.758h-9.266v0.644c1.107 0.033 1.685 0.198 1.685 1.206v7.895c0 1.007-0.578 1.173-1.685 1.206v0.644h9.348l0.495-2.973h-0.462c-1.057 1.734-1.338 2.213-2.791 2.213h-1.652c-1.173 0-1.668-0.231-1.668-1.123v-3.667h2.808c0.727 0 1.024 0.495 1.189 1.486h0.562zM72.093 7.697v-3.733h-0.562c-0.165 0.991-0.462 1.486-1.189 1.486h-2.808v-4.525h3.155c1.338 0 1.8 0.562 2.395 1.998h0.446v-2.758h-9.266v0.644c1.107 0.033 1.685 0.198 1.685 1.206v7.895c0 1.007-0.578 1.173-1.685 1.206v0.644h9.348l0.495-2.973h-0.462c-1.057 1.734-1.338 2.213-2.791 2.213h-1.652c-1.173 0-1.668-0.231-1.668-1.123v-3.667h2.808c0.727 0 1.024 0.495 1.189 1.486h0.562zM91.119 11.925c2.197 0 4.046-1.156 4.046-3.27 0-1.833-1.156-2.692-3.584-3.584-2.048-0.76-2.61-1.272-2.61-2.395 0-1.057 0.71-1.85 2.098-1.85 1.602 0 2.593 1.14 2.973 2.742h0.545v-2.527c-0.892-0.595-2.098-1.041-3.435-1.041-2.312 0-3.617 1.354-3.617 3.105 0 1.866 1.189 2.659 3.386 3.468 1.998 0.743 2.742 1.272 2.742 2.411 0 1.354-0.941 2.114-2.494 2.114-1.685 0-2.692-1.288-3.188-3.022h-0.578l0.116 2.709c0.727 0.611 2.048 1.14 3.601 1.14v0zM110.013 9.91c0 1.007-0.611 1.173-1.685 1.206v0.644h4.955v-0.644c-1.107-0.033-1.685-0.198-1.685-1.206v-7.895c0-1.007 0.578-1.173 1.685-1.206v-0.644h-4.955v0.644c1.074 0.033 1.685 0.198 1.685 1.206v3.435h-6.127v-3.435c0-1.007 0.611-1.173 1.685-1.206v-0.644h-4.955v0.644c1.107 0.033 1.685 0.198 1.685 1.206v7.895c0 1.007-0.578 1.173-1.685 1.206v0.644h4.955v-0.644c-1.074-0.033-1.685-0.198-1.685-1.206v-3.7h6.127v3.7zM126.364 7.697v-3.733h-0.562c-0.165 0.991-0.462 1.486-1.189 1.486h-2.808v-4.525h3.155c1.338 0 1.8 0.562 2.395 1.998h0.446v-2.758h-9.266v0.644c1.107 0.033 1.685 0.198 1.685 1.206v7.895c0 1.007-0.578 1.173-1.685 1.206v0.644h9.348l0.495-2.973h-0.462c-1.057 1.734-1.338 2.213-2.791 2.213h-1.652c-1.173 0-1.668-0.231-1.668-1.123v-3.667h2.808c0.727 0 1.024 0.495 1.189 1.486h0.562zM141.559 7.697v-3.733h-0.562c-0.165 0.991-0.462 1.486-1.189 1.486h-2.808v-4.525h3.155c1.338 0 1.8 0.562 2.395 1.998h0.446v-2.758h-9.266v0.644c1.107 0.033 1.685 0.198 1.685 1.206v7.895c0 1.007-0.578 1.173-1.685 1.206v0.644h9.348l0.495-2.973h-0.462c-1.057 1.734-1.338 2.213-2.791 2.213h-1.652c-1.173 0-1.668-0.231-1.668-1.123v-3.667h2.808c0.727 0 1.024 0.495 1.189 1.486h0.562zM148.859 0.165l-0.248 3.452h0.512c0.991-2.263 1.173-2.709 2.676-2.709h1.222v9.001c0 1.007-0.628 1.173-1.734 1.206v0.644h5.087v-0.644c-1.107-0.033-1.751-0.198-1.751-1.206v-9.001h1.255c1.503 0 1.685 0.446 2.659 2.709h0.529l-0.264-3.452h-9.943zM168.067 11.925c2.197 0 4.046-1.156 4.046-3.27 0-1.833-1.156-2.692-3.584-3.584-2.048-0.76-2.61-1.272-2.61-2.395 0-1.057 0.71-1.85 2.098-1.85 1.602 0 2.593 1.14 2.973 2.742h0.545v-2.527c-0.892-0.595-2.098-1.041-3.435-1.041-2.312 0-3.617 1.354-3.617 3.105 0 1.866 1.189 2.659 3.386 3.468 1.998 0.743 2.742 1.272 2.742 2.411 0 1.354-0.941 2.114-2.494 2.114-1.685 0-2.692-1.288-3.188-3.022h-0.578l0.116 2.709c0.727 0.611 2.048 1.14 3.601 1.14v0z"></path>
<path d="M61.151 26.747c0-0.504 0.297-0.586 0.834-0.603v-0.322h-2.477v0.322c0.553 0.017 0.842 0.099 0.842 0.603v3.947c0 0.504-0.289 0.586-0.842 0.603v0.322h4.327l0.264-1.61h-0.264c-0.462 0.859-0.644 1.23-1.371 1.23h-0.479c-0.586 0-0.834-0.116-0.834-0.562v-3.931zM70.884 31.247c-1.371 0-1.941-1.288-1.941-2.552 0-1.412 0.586-2.502 1.759-2.502 1.371 0 1.941 1.288 1.941 2.552 0 1.412-0.586 2.502-1.759 2.502v0zM70.818 25.739c-1.503 0-2.758 1.206-2.758 3.097 0 1.536 0.999 2.866 2.709 2.866 1.503 0 2.758-1.206 2.758-3.097 0-1.536-0.999-2.866-2.709-2.866v0zM78.412 30.694c0 0.504-0.289 0.586-0.842 0.603v0.322h2.164v-0.322c-0.553-0.017-0.842-0.099-0.842-0.603v-3.658l3.667 4.583h0.339v-4.872c0-0.504 0.289-0.586 0.842-0.603v-0.322h-2.164v0.322c0.553 0.017 0.842 0.099 0.842 0.603v3.427l-3.435-4.352h-1.412v0.322c0.405 0.008 0.512 0.132 0.842 0.52v4.030zM90.011 26.202c1.701 0 2.337 1.247 2.337 2.535 0 1.627-0.785 2.502-2.056 2.502h-0.182c-0.578 0-0.842-0.099-0.842-0.586v-4.451h0.743zM87.632 26.144c0.553 0.017 0.842 0.099 0.842 0.603v3.947c0 0.504-0.289 0.586-0.842 0.603v0.322h2.659c1.619 0 2.94-1.074 2.94-3.064 0-1.437-0.917-2.733-3.064-2.733h-2.535v0.322zM100.338 31.247c-1.371 0-1.941-1.288-1.941-2.552 0-1.412 0.586-2.502 1.759-2.502 1.371 0 1.941 1.288 1.941 2.552 0 1.412-0.586 2.502-1.759 2.502v0zM100.272 25.739c-1.503 0-2.758 1.206-2.758 3.097 0 1.536 0.999 2.866 2.709 2.866 1.503 0 2.758-1.206 2.758-3.097 0-1.536-0.999-2.866-2.709-2.866v0zM107.866 30.694c0 0.504-0.289 0.586-0.842 0.603v0.322h2.164v-0.322c-0.553-0.017-0.842-0.099-0.842-0.603v-3.658l3.667 4.583h0.339v-4.872c0-0.504 0.289-0.586 0.842-0.603v-0.322h-2.164v0.322c0.553 0.017 0.842 0.099 0.842 0.603v3.427l-3.435-4.352h-1.412v0.322c0.405 0.008 0.512 0.132 0.842 0.52v4.030z"></path>
</symbol>
</defs>
</svg>
