<?xml version="1.0" encoding="UTF-8"?>
<svg width="433px" height="31px" viewBox="0 0 433 31" version="1.1" xmlns="http://www.w3.org/2000/svg" xmlns:xlink="http://www.w3.org/1999/xlink">
    <!-- Generator: Sketch 43.2 (39069) - http://www.bohemiancoding.com/sketch -->
    <title>Three Sheets Logo</title>
    <desc>Created with Sketch.</desc>
    <defs></defs>
    <g id="Symbols" stroke="none" stroke-width="1" fill="none" fill-rule="evenodd">
        <g id="Logo" fill="#222222">
            <path d="M0.673323809,1.11332288 L0.0515,9.77740128 L1.33660254,9.77740128 C3.82389777,4.09807716 4.2799019,2.9787943 8.05229967,2.9787943 L11.1199638,2.9787943 L11.1199638,25.571726 C11.1199638,28.1004762 9.54467681,28.5150254 6.76719713,28.5979352 L6.76719713,30.2146771 L19.5353127,30.2146771 L19.5353127,28.5979352 C16.757833,28.5150254 15.1410911,28.1004762 15.1410911,25.571726 L15.1410911,2.9787943 L18.2916651,2.9787943 C22.0640628,2.9787943 22.520067,4.09807716 24.9659073,9.77740128 L26.2924647,9.77740128 L25.629186,1.11332288 L0.673323809,1.11332288 Z M62.2753358,25.571726 C62.2753358,28.1004762 60.7415037,28.5150254 58.0469339,28.5979352 L58.0469339,30.2146771 L70.4834101,30.2146771 L70.4834101,28.5979352 C67.7059304,28.5150254 66.2550082,28.1004762 66.2550082,25.571726 L66.2550082,5.75627398 C66.2550082,3.22752383 67.7059304,2.81297462 70.4834101,2.73006478 L70.4834101,1.11332288 L58.0469339,1.11332288 L58.0469339,2.73006478 C60.7415037,2.81297462 62.2753358,3.22752383 62.2753358,5.75627398 L62.2753358,14.3788975 L46.8955602,14.3788975 L46.8955602,5.75627398 C46.8955602,3.22752383 48.4293923,2.81297462 51.1239621,2.73006478 L51.1239621,1.11332288 L38.687486,1.11332288 L38.687486,2.73006478 C41.4649657,2.81297462 42.9158879,3.22752383 42.9158879,5.75627398 L42.9158879,25.571726 C42.9158879,28.1004762 41.4649657,28.5150254 38.687486,28.5979352 L38.687486,30.2146771 L51.1239621,30.2146771 L51.1239621,28.5979352 C48.4293923,28.5150254 46.8955602,28.1004762 46.8955602,25.571726 L46.8955602,16.2858238 L62.2753358,16.2858238 L62.2753358,25.571726 Z M94.6101738,3.02024923 C99.8749487,3.02024923 102.07206,5.75627398 102.07206,9.27994223 C102.07206,13.5497991 99.7091291,15.7054549 94.7759935,15.7054549 L91.8741491,15.7054549 L91.8741491,3.02024923 L94.6101738,3.02024923 Z M83.6660748,1.11332288 L83.6660748,2.73006478 C86.4435545,2.81297462 87.8944767,3.22752383 87.8944767,5.75627398 L87.8944767,25.571726 C87.8944767,28.1004762 86.4435545,28.5150254 83.6660748,28.5979352 L83.6660748,30.2146771 L96.061096,30.2146771 L96.061096,28.5979352 C93.3665262,28.5150254 91.8741491,28.1004762 91.8741491,25.571726 L91.8741491,17.5294714 L94.0712599,17.5294714 L101.077141,26.5666441 C102.445154,28.3492057 103.315707,29.2612139 104.849539,30.2146771 L110.777593,30.2146771 L110.777593,28.5979352 C108.539027,28.4735705 106.756466,27.3128327 105.429908,25.6546359 L98.4654814,16.9905575 C102.403699,16.6174632 106.466281,13.9643483 106.466281,9.27994223 C106.466281,4.47117145 103.232797,1.11332288 95.8538214,1.11332288 L83.6660748,1.11332288 Z M142.863701,20.0167667 L142.863701,10.6479546 L141.454234,10.6479546 C141.039685,13.1352498 140.293496,14.3788975 138.46948,14.3788975 L131.422143,14.3788975 L131.422143,3.02024923 L139.340033,3.02024923 C142.697882,3.02024923 143.858619,4.42971652 145.350997,8.03629461 L146.470279,8.03629461 L146.470279,1.11332288 L123.214069,1.11332288 L123.214069,2.73006478 C125.991549,2.81297462 127.442471,3.22752383 127.442471,5.75627398 L127.442471,25.571726 C127.442471,28.1004762 125.991549,28.5150254 123.214069,28.5979352 L123.214069,30.2146771 L146.677554,30.2146771 L147.921202,22.7527914 L146.760464,22.7527914 C144.107349,27.1055581 143.402615,28.3077508 139.754582,28.3077508 L135.60909,28.3077508 C132.665791,28.3077508 131.422143,27.7273819 131.422143,25.4888162 L131.422143,16.2858238 L138.46948,16.2858238 C140.293496,16.2858238 141.039685,17.5294714 141.454234,20.0167667 L142.863701,20.0167667 Z M181.000501,20.0167667 L181.000501,10.6479546 L179.591034,10.6479546 C179.176485,13.1352498 178.430296,14.3788975 176.606279,14.3788975 L169.558943,14.3788975 L169.558943,3.02024923 L177.476833,3.02024923 C180.834681,3.02024923 181.995419,4.42971652 183.487796,8.03629461 L184.607079,8.03629461 L184.607079,1.11332288 L161.350869,1.11332288 L161.350869,2.73006478 C164.130076,2.81297462 165.579271,3.22752383 165.579271,5.75627398 L165.579271,25.571726 C165.579271,28.1004762 164.130076,28.5150254 161.350869,28.5979352 L161.350869,30.2146771 L184.814354,30.2146771 L186.058001,22.7527914 L184.897264,22.7527914 C182.244149,27.1055581 181.539415,28.3077508 177.891382,28.3077508 L173.74589,28.3077508 C170.802591,28.3077508 169.558943,27.7273819 169.558943,25.4888162 L169.558943,16.2858238 L176.606279,16.2858238 C178.430296,16.2858238 179.176485,17.5294714 179.591034,20.0167667 L181.000501,20.0167667 Z M228.75657,30.6292263 C234.270074,30.6292263 238.913025,27.7273819 238.913025,22.4211521 C238.913025,17.8196559 236.011181,15.664 229.917307,13.4254343 C224.776897,11.5185079 223.36743,10.2334054 223.36743,7.41447081 C223.36743,4.76135589 225.149991,2.7715197 228.632205,2.7715197 C232.653332,2.7715197 235.140627,5.63190922 236.09409,9.65303652 L237.462103,9.65303652 L237.462103,3.31043367 C235.223537,1.81805653 232.197328,0.698773673 228.839479,0.698773673 C223.03579,0.698773673 219.760852,4.09807716 219.760852,8.49229874 C219.760852,13.1767048 222.745606,15.166541 228.25911,17.1978321 C233.275156,19.0633035 235.140627,20.3898609 235.140627,23.2502505 C235.140627,26.649554 232.777697,28.5564803 228.880934,28.5564803 C224.652532,28.5564803 222.123782,25.3229965 220.880135,20.9702298 L219.429212,20.9702298 L219.719397,27.7688368 C221.543413,29.3026689 224.859807,30.6292263 228.75657,30.6292263 L228.75657,30.6292263 Z M276.180999,25.571726 C276.180999,28.1004762 274.647167,28.5150254 271.952597,28.5979352 L271.952597,30.2146771 L284.389073,30.2146771 L284.389073,28.5979352 C281.611593,28.5150254 280.160671,28.1004762 280.160671,25.571726 L280.160671,5.75627398 C280.160671,3.22752383 281.611593,2.81297462 284.389073,2.73006478 L284.389073,1.11332288 L271.952597,1.11332288 L271.952597,2.73006478 C274.647167,2.81297462 276.180999,3.22752383 276.180999,5.75627398 L276.180999,14.3788975 L260.801223,14.3788975 L260.801223,5.75627398 C260.801223,3.22752383 262.335055,2.81297462 265.029625,2.73006478 L265.029625,1.11332288 L252.593149,1.11332288 L252.593149,2.73006478 C255.370629,2.81297462 256.821551,3.22752383 256.821551,5.75627398 L256.821551,25.571726 C256.821551,28.1004762 255.370629,28.5150254 252.593149,28.5979352 L252.593149,30.2146771 L265.029625,30.2146771 L265.029625,28.5979352 C262.335055,28.5150254 260.801223,28.1004762 260.801223,25.571726 L260.801223,16.2858238 L276.180999,16.2858238 L276.180999,25.571726 Z M317.22137,20.0167667 L317.22137,10.6479546 L315.811903,10.6479546 C315.397354,13.1352498 314.651165,14.3788975 312.827148,14.3788975 L305.779812,14.3788975 L305.779812,3.02024923 L313.697702,3.02024923 C317.05555,3.02024923 318.216288,4.42971652 319.708665,8.03629461 L320.827948,8.03629461 L320.827948,1.11332288 L297.571738,1.11332288 L297.571738,2.73006478 C300.349217,2.81297462 301.80014,3.22752383 301.80014,5.75627398 L301.80014,25.571726 C301.80014,28.1004762 300.349217,28.5150254 297.571738,28.5979352 L297.571738,30.2146771 L321.035223,30.2146771 L322.27887,22.7527914 L321.118133,22.7527914 C318.465018,27.1055581 317.760284,28.3077508 314.112251,28.3077508 L309.966759,28.3077508 C307.02346,28.3077508 305.779812,27.7273819 305.779812,25.4888162 L305.779812,16.2858238 L312.827148,16.2858238 C314.651165,16.2858238 315.397354,17.5294714 315.811903,20.0167667 L317.22137,20.0167667 Z M355.359897,20.0167667 L355.359897,10.6479546 L353.95043,10.6479546 C353.53588,13.1352498 352.789692,14.3788975 350.965675,14.3788975 L343.918339,14.3788975 L343.918339,3.02024923 L351.836229,3.02024923 C355.194077,3.02024923 356.354815,4.42971652 357.847192,8.03629461 L358.966475,8.03629461 L358.966475,1.11332288 L335.710265,1.11332288 L335.710265,2.73006478 C338.487744,2.81297462 339.938666,3.22752383 339.938666,5.75627398 L339.938666,25.571726 C339.938666,28.1004762 338.487744,28.5150254 335.710265,28.5979352 L335.710265,30.2146771 L359.17375,30.2146771 L360.417397,22.7527914 L359.256659,22.7527914 C356.603545,27.1055581 355.898811,28.3077508 352.250778,28.3077508 L348.105286,28.3077508 C345.161986,28.3077508 343.918339,27.7273819 343.918339,25.4888162 L343.918339,16.2858238 L350.965675,16.2858238 C352.789692,16.2858238 353.53588,17.5294714 353.95043,20.0167667 L355.359897,20.0167667 Z M373.682972,1.11332288 L373.061148,9.77740128 L374.346251,9.77740128 C376.833546,4.09807716 377.28955,2.9787943 381.061948,2.9787943 L384.129612,2.9787943 L384.129612,25.571726 C384.129612,28.1004762 382.554325,28.5150254 379.776845,28.5979352 L379.776845,30.2146771 L392.544961,30.2146771 L392.544961,28.5979352 C389.767481,28.5150254 388.150739,28.1004762 388.150739,25.571726 L388.150739,2.9787943 L391.301313,2.9787943 C395.073711,2.9787943 395.529715,4.09807716 397.975555,9.77740128 L399.302113,9.77740128 L398.638834,1.11332288 L373.682972,1.11332288 Z M421.895044,30.6292263 C427.408549,30.6292263 432.0515,27.7273819 432.0515,22.4211521 C432.0515,17.8196559 429.149656,15.664 423.055782,13.4254343 C417.915372,11.5185079 416.505905,10.2334054 416.505905,7.41447081 C416.505905,4.76135589 418.288466,2.7715197 421.77068,2.7715197 C425.791807,2.7715197 428.279102,5.63190922 429.232565,9.65303652 L430.600578,9.65303652 L430.600578,3.31043367 C428.362012,1.81805653 425.335803,0.698773673 421.977954,0.698773673 C416.174265,0.698773673 412.899327,4.09807716 412.899327,8.49229874 C412.899327,13.1767048 415.884081,15.166541 421.397585,17.1978321 C426.413631,19.0633035 428.279102,20.3898609 428.279102,23.2502505 C428.279102,26.649554 425.916172,28.5564803 422.019409,28.5564803 C417.791007,28.5564803 415.262257,25.3229965 414.01861,20.9702298 L412.567687,20.9702298 L412.857872,27.7688368 C414.681888,29.3026689 417.998282,30.6292263 421.895044,30.6292263 L421.895044,30.6292263 Z" id="Three-Sheets-Logo"></path>
        </g>
    </g>
</svg>